<svg width="33" height="33" viewBox="0 0 33 33" fill="none" xmlns="http://www.w3.org/2000/svg">
<path d="M12.0694 3.78526C11.9182 2.7016 12.6839 1.69493 13.7608 1.54475C14.8376 1.39457 15.8481 2.14922 15.9992 3.23289L16.2989 5.3819C16.427 5.75993 16.8073 6.00606 17.2147 5.94923C17.5898 5.89692 17.8725 5.60398 17.9305 5.24675C17.9405 5.18486 17.936 5.12171 17.9273 5.05956C17.8989 4.85536 17.9029 4.65407 17.9355 4.46081C18.0757 3.62844 18.7445 2.94529 19.6185 2.82341C20.6954 2.67323 21.6909 3.42997 21.842 4.51363L21.9845 5.53493C22.0466 5.98084 22.3052 6.37275 22.6768 6.62419C27.2825 9.74064 30.8037 15.1958 31.3736 19.2821C32.1364 24.752 26.1034 30.1138 17.8985 31.258C9.69367 32.4022 2.42392 28.8956 1.66111 23.4257C1.0908 19.3361 2.98871 13.1191 6.57153 8.86118C6.86035 8.51794 7.0022 8.07046 6.94044 7.62458L6.79928 6.60547C6.64816 5.52181 7.39865 4.52158 8.47553 4.37141C9.34993 4.24947 10.1805 4.72408 10.5428 5.48699C10.6268 5.66365 10.6856 5.85578 10.714 6.05955C10.7232 6.12558 10.7368 6.19148 10.7655 6.25163C10.9203 6.57624 11.2706 6.77818 11.6436 6.72615C12.0511 6.66933 12.3495 6.32856 12.3693 5.92991L12.0694 3.78526Z" fill="white"/>
<path d="M15.9992 3.23286C15.8481 2.14921 14.8376 1.39457 13.7608 1.54475C12.6839 1.69493 11.9182 2.7016 12.0693 3.78526L12.3693 5.92988C12.3495 6.32853 12.0511 6.6693 11.6436 6.72612C11.2822 6.77652 10.9422 6.58861 10.7806 6.28168L10.7656 6.2516C10.7441 6.20649 10.731 6.15817 10.7219 6.10896L10.714 6.05959C10.6856 5.85582 10.6267 5.66362 10.5428 5.48695C10.1805 4.72407 9.34992 4.24944 8.47553 4.37138C7.39865 4.52156 6.64817 5.52185 6.79929 6.60552L6.94048 7.62456L6.94566 7.66636C6.99322 8.09832 6.85131 8.52866 6.57152 8.86117C2.9887 13.119 1.09082 19.3361 1.66111 23.4256C2.42392 28.8955 9.69367 32.4022 17.8985 31.258C26.1034 30.1138 32.1364 24.752 31.3736 19.2821C30.8082 15.2278 27.3373 9.82582 22.7846 6.69769L22.6768 6.62416C22.3053 6.37272 22.0466 5.98083 21.9845 5.53491L21.842 4.51364C21.6933 3.44691 20.7263 2.69698 19.6689 2.81706L19.6185 2.82344C18.7446 2.94532 18.0757 3.62844 17.9355 4.46081L17.9246 4.53369C17.9024 4.70447 17.9024 4.88091 17.9273 5.05957L17.9329 5.1063C17.9374 5.15319 17.938 5.20035 17.9305 5.24678L17.9244 5.28007C17.8548 5.62207 17.5781 5.89853 17.2147 5.9492C16.8073 6.00602 16.427 5.7599 16.2989 5.38187L15.9992 3.23286ZM17.1486 3.32974C17.6018 2.48065 18.441 1.85176 19.4631 1.70922C21.162 1.47231 22.7202 2.66582 22.9563 4.35826L23.0987 5.37953C23.1138 5.48817 23.181 5.60697 23.3073 5.69246C25.7448 7.34181 27.8748 9.59353 29.4713 11.9603C31.0611 14.3172 32.1722 16.8635 32.4878 19.1267C32.9373 22.3501 31.3654 25.4053 28.7462 27.7331C26.12 30.0672 22.3456 31.7737 18.0539 32.3722C13.7622 32.9707 9.66496 32.3619 6.50034 30.8355C3.34422 29.3131 0.996415 26.8044 0.546892 23.581C0.231037 21.316 0.603913 18.5604 1.4898 15.8563C2.37942 13.1409 3.81448 10.3904 5.71075 8.13687C5.80896 8.02016 5.84116 7.88757 5.82612 7.77895L5.68492 6.75981C5.44953 5.06777 6.62168 3.49403 8.32015 3.25717C9.34183 3.11469 10.3207 3.48966 10.9888 4.18182L10.9551 3.94064C10.7179 2.23968 11.9151 0.666255 13.6054 0.430533C15.2931 0.195166 16.8759 1.37399 17.1135 3.07748L17.1486 3.32974Z" fill="white"/>
<path fill-rule="evenodd" clip-rule="evenodd" d="M31.3736 19.2821C31.3546 19.1459 31.3323 19.0081 31.3068 18.869C31.411 23.7839 25.5131 28.4923 17.6655 29.5867C9.81778 30.6811 2.85676 27.7659 1.6123 23.0101C1.62585 23.1509 1.64211 23.2895 1.66111 23.4257C2.42392 28.8956 9.69367 32.4023 17.8985 31.258C26.1034 30.1138 32.1364 24.752 31.3736 19.2821Z" fill="#ABAAB6"/>
<path d="M14.2014 9.02835C14.155 8.7212 14.3663 8.43451 14.6735 8.38805C14.9806 8.34161 15.2673 8.55295 15.3138 8.8601L15.6857 11.3201C15.7321 11.6272 15.5208 11.9139 15.2136 11.9604C14.9065 12.0068 14.6198 11.7955 14.5733 11.4883L14.2014 9.02835Z" fill="white"/>
<path d="M11.4126 9.19887C11.5141 8.90525 11.8343 8.7494 12.128 8.85081C12.4216 8.95224 12.5774 9.2725 12.476 9.56612L11.6637 11.9177C11.5622 12.2113 11.242 12.3671 10.9484 12.2657C10.6547 12.1643 10.4989 11.844 10.6003 11.5504L11.4126 9.19887Z" fill="white"/>
<path d="M18.0139 8.21207C17.8297 7.96191 17.4776 7.90837 17.2274 8.09252C16.9773 8.27669 16.9237 8.62881 17.1079 8.87898L18.5829 10.8825C18.7671 11.1326 19.1192 11.1862 19.3694 11.002C19.6195 10.8179 19.6731 10.4657 19.4889 10.2156L18.0139 8.21207Z" fill="white"/>
<path d="M21.7011 21.8414C22.3208 20.678 24.1156 18.9686 27.0875 18.8946C27.398 18.8869 27.6561 19.1324 27.6638 19.443C27.6715 19.7535 27.426 20.0115 27.1155 20.0193C24.5864 20.0822 23.1412 21.5307 22.694 22.3703C22.5479 22.6445 22.2073 22.7483 21.9331 22.6023C21.6589 22.4563 21.555 22.1156 21.7011 21.8414Z" fill="white"/>
<path d="M9.24834 21.6821C12.058 20.711 14.3376 21.684 15.3254 22.5568C15.5582 22.7625 15.5802 23.1179 15.3745 23.3507C15.1688 23.5835 14.8133 23.6055 14.5805 23.3998C13.8676 22.7699 12.0068 21.919 9.61577 22.7453C9.32216 22.8468 9.00187 22.6911 8.90039 22.3975C8.79891 22.1039 8.95472 21.7836 9.24834 21.6821Z" fill="white"/>
</svg>
