<svg xmlns="http://www.w3.org/2000/svg" fill="none" viewBox="0 0 56 29">
  <path fill="#ffffff" d="M49.86 4.512c.485-.03.723-.009 1.194.127.459.133.941.55 1.132.97.859 1.892-1.603 4.975-2.19 6.823-.12.376-.358.996-.16 1.37.025.05.129.145.177.153 1.165.174 2.947-2.207 3.566-2.917.47-.541 1.347-1.923 1.823-2.161.074 0 .112-.008.18.026.19.093.299.394.355.58.16.527-.005 1.007-.272 1.466-1.245 2.138-4.161 5.883-6.715 6.555-.764.2-1.621.207-2.321-.186-.572-.32-.907-.843-1.027-1.463-.499-2.586 2.602-6.574 2.256-7.603a.3.3 0 0 0-.157-.173c-.148-.064-.352-.009-.497.044-.487.176-.888.596-1.231.959-1.717 1.813-2.953 4.205-3.772 6.514-.204.578-.35 1.723-.585 2.157-.086.158-.256.256-.426.312-.602.198-1.523-.008-2.07-.286-3.001-1.531 2.028-7.422 1.498-8.836a.34.34 0 0 0-.191-.206c-.147-.06-.326-.019-.468.036-1.508.578-3.36 3.818-4.054 5.171-.303.592-.56 1.207-.826 1.815-.418.94-.653 1.882-.95 2.853-.162.48-1.221.418-1.61.334-1.752-.377-1.988-1.341-1.715-2.798-1.164 1.398-3.165 3.33-5.095 3.61-.682.098-1.428.013-1.99-.398-.582-.424-.832-1.114-.917-1.79-.295-2.356 1.574-6.277 2.712-8.375.369-.68.753-1.414 1.25-2.017.239-.289.491-.426.872-.467.706-.075 1.623.093 2.182.537.207.164.396.416.372.686-.034.372-.522 1.037-.719 1.394-.718 1.304-2.782 4.977-2.608 6.312.02.154.068.316.206.412.142.1.332.088.494.05 1.273-.296 4.186-3.73 4.844-4.897.258-.457.437-.97.655-1.448.535-1.176 1.146-2.52 1.864-3.596.944-.428 2.482-.11 3.045.809-.224.625-.58 1.394-.849 2.018.392-.379.767-.896 1.172-1.31 1.119-1.126 2.717-2.491 4.43-2.529 1.74-.038 2.32.929 2.349 2.424 1.24-1.33 2.876-2.826 4.788-3.061M13.628.042c.812-.085 1.816-.029 2.62.064 4.942.568 7.714 4.21 6.93 8.937-.742 4.472-3.922 8.287-7.59 10.972-3.238 2.311-7.432 4.232-11.562 3.805-1.997-.206-3.654-1.7-3.39-3.71.028-.209.394-1.122.678-1.024.367.165.836.733 1.203.865 2.842 1.018 6.476-.374 8.898-1.815 1.947-1.21 3.392-2.384 4.853-4.171 1.61-1.992 3.201-4.741 2.91-7.35-.33-2.943-3.413-3.489-5.962-3.102-3.64.553-7.84 2.632-9.621 5.879-.15.275-.236.623-.284.926-.067.356.093 1.076-.099 1.323-.602.411-1.478-.057-1.951-.45-2.04-1.697-1.352-4.114.269-5.817C4.603 2.143 9.132.342 13.628.042M47.788 19.5c1.158-.154 1.112 1.386-.097 1.602-.943.168-1.852.244-2.803.348q-2.296.252-4.586.555a184 184 0 0 0-21.042 3.932c-1.79.453-3.848.986-5.61 1.527l-3.068.959c-.508.16-1.597.536-2.07.577-2.236-.017-.08-2.857.955-3.291 1.547-.65 3.185-1.063 4.817-1.474 8.299-2.086 16.874-3.366 25.408-4.136q4.045-.338 8.096-.599"/>
  <path fill="#ffffff" d="M10.933 5.639c.793-.044 2.94.195 2.869 1.28-.187.354-.561.718-.797 1.052-2.29 3.24-4.263 6.873-5.164 10.714-.027.115-.07.126-.162.187a3.07 3.07 0 0 1-2.026-.41c-.415-.252-.769-.623-.874-1.096-.453-2.033 3.08-8.219 4.365-10.13.49-.726.853-1.405 1.79-1.597m19.9-4.866c.542-.044 1.05-.055 1.553.181.38.176.669.494.798.881.401 1.188-.604 2.616-1.687 3.112-.202.093-.41.16-.624.226-2.33.361-3.014-1.558-1.883-3.258.465-.7 1.018-.977 1.843-1.142"/>
</svg>
